<svg id="visual" viewBox="0 0 900 600" width="900" height="600" xmlns="http://www.w3.org/2000/svg" xmlns:xlink="http://www.w3.org/1999/xlink" version="1.1"><rect x="0" y="0" width="900" height="600" fill="#002233"></rect><path d="M0 200L6.3 233.2C12.7 266.3 25.3 332.7 37.8 348C50.3 363.3 62.7 327.7 75.2 321.2C87.7 314.7 100.3 337.3 112.8 339.5C125.3 341.7 137.7 323.3 150.2 330.3C162.7 337.3 175.3 369.7 187.8 347.7C200.3 325.7 212.7 249.3 225.2 213.2C237.7 177 250.3 181 262.8 231.8C275.3 282.7 287.7 380.3 300.2 391.3C312.7 402.3 325.3 326.7 337.8 324.3C350.3 322 362.7 393 375.2 430.8C387.7 468.7 400.3 473.3 412.8 448.3C425.3 423.3 437.7 368.7 450 328.8C462.3 289 474.7 264 487.2 235.2C499.7 206.3 512.3 173.7 525 208.2C537.7 242.7 550.3 344.3 562.8 390.5C575.3 436.7 587.7 427.3 600.2 415.3C612.7 403.3 625.3 388.7 637.8 364.8C650.3 341 662.7 308 675.2 318.2C687.7 328.3 700.3 381.7 712.8 367.8C725.3 354 737.7 273 750.2 262.5C762.7 252 775.3 312 787.8 302.5C800.3 293 812.7 214 825.2 223.3C837.7 232.7 850.3 330.3 862.8 357.8C875.3 385.3 887.7 342.7 893.8 321.3L900 300L900 601L893.8 601C887.7 601 875.3 601 862.8 601C850.3 601 837.7 601 825.2 601C812.7 601 800.3 601 787.8 601C775.3 601 762.7 601 750.2 601C737.7 601 725.3 601 712.8 601C700.3 601 687.7 601 675.2 601C662.7 601 650.3 601 637.8 601C625.3 601 612.7 601 600.2 601C587.7 601 575.3 601 562.8 601C550.3 601 537.7 601 525 601C512.3 601 499.7 601 487.2 601C474.7 601 462.3 601 450 601C437.7 601 425.3 601 412.8 601C400.3 601 387.7 601 375.2 601C362.7 601 350.3 601 337.8 601C325.3 601 312.7 601 300.2 601C287.7 601 275.3 601 262.8 601C250.3 601 237.7 601 225.2 601C212.7 601 200.3 601 187.8 601C175.3 601 162.7 601 150.2 601C137.7 601 125.3 601 112.8 601C100.3 601 87.7 601 75.2 601C62.7 601 50.3 601 37.8 601C25.3 601 12.7 601 6.3 601L0 601Z" fill="#0066FF" stroke-linecap="round" stroke-linejoin="miter"></path></svg>